<svg width="56" height="69" viewBox="0 0 56 69" fill="none" xmlns="http://www.w3.org/2000/svg">
<path d="M46.3673 38.3363C44.4968 28.9225 53.4321 23.4014 53.4321 23.4014C53.4321 23.4014 49.9508 18.3648 44.1 17.0691C38.2521 15.7705 35.3252 17.3929 32.4041 18.6098C29.4802 19.8296 28.0211 19.8296 28.0211 19.8296C23.8016 19.8296 20.717 15.362 12.6777 17.3959C7.13915 18.7936 1.30867 25.1873 0.255239 32.8182C-0.798195 40.452 1.47507 50.1927 5.85804 57.7419C10.241 65.2969 14.7058 68.1362 17.8748 68.2179C21.0439 68.2967 24.2072 65.9476 28.0211 65.3757C31.8381 64.8095 34.1871 66.7589 37.931 67.8123C41.6603 68.8629 42.9677 67.8882 47.2631 64.2347C51.5702 60.5812 55.4689 50.1023 55.4689 50.1023C55.4689 50.1023 48.2378 47.756 46.3673 38.3363Z" fill="black"/>
<path d="M38.0856 10.9788C42.2293 6.75638 40.8258 0.219727 40.8258 0.219727C40.8258 0.219727 35.0071 1.2411 31.1084 5.29723C27.2127 9.35634 27.8576 15.7675 27.8576 15.7675C27.8576 15.7675 33.9418 15.1985 38.0856 10.9788Z" fill="black"/>
</svg>
