<svg width="211" height="71" viewBox="0 0 211 71" fill="none" xmlns="http://www.w3.org/2000/svg">
<path d="M90.2977 37.0525C90.2977 47.0967 82.4804 54.4981 72.8868 54.4981C63.2933 54.4981 55.476 47.0967 55.476 37.0525C55.476 26.9375 63.2933 19.6069 72.8868 19.6069C82.4804 19.6069 90.2977 26.9375 90.2977 37.0525ZM82.676 37.0525C82.676 30.7759 78.1453 26.4813 72.8868 26.4813C67.6284 26.4813 63.0976 30.7759 63.0976 37.0525C63.0976 43.2662 67.6284 47.6237 72.8868 47.6237C78.1453 47.6237 82.676 43.2584 82.676 37.0525Z" fill="#EA4335"/>
<path d="M127.858 37.0525C127.858 47.0967 120.041 54.4981 110.447 54.4981C100.854 54.4981 93.0363 47.0967 93.0363 37.0525C93.0363 26.9454 100.854 19.6069 110.447 19.6069C120.041 19.6069 127.858 26.9375 127.858 37.0525ZM120.236 37.0525C120.236 30.7759 115.706 26.4813 110.447 26.4813C105.189 26.4813 100.658 30.7759 100.658 37.0525C100.658 43.2662 105.189 47.6237 110.447 47.6237C115.706 47.6237 120.236 43.2584 120.236 37.0525Z" fill="#FBBC05"/>
<path d="M163.853 20.6609V51.9811C163.853 64.8647 156.294 70.1267 147.358 70.1267C138.946 70.1267 133.883 64.4715 131.974 59.8466L138.61 57.0701C139.791 59.9095 142.687 63.2602 147.35 63.2602C153.07 63.2602 156.615 59.7129 156.615 53.0351V50.526H156.349C154.643 52.6418 151.357 54.4902 147.209 54.4902C138.531 54.4902 130.581 46.8922 130.581 37.1154C130.581 27.2679 138.531 19.6069 147.209 19.6069C151.349 19.6069 154.636 21.4553 156.349 23.5082H156.615V20.6688H163.853V20.6609ZM157.155 37.1154C157.155 30.9725 153.078 26.4813 147.89 26.4813C142.632 26.4813 138.226 30.9725 138.226 37.1154C138.226 43.1954 142.632 47.6237 147.89 47.6237C153.078 47.6237 157.155 43.1954 157.155 37.1154Z" fill="#4285F4"/>
<path d="M175.787 2.30249V53.4279H168.353V2.30249H175.787Z" fill="#34A853"/>
<path d="M204.756 42.7941L210.671 46.7583C208.762 49.5977 204.161 54.49 196.211 54.49C186.351 54.49 178.987 46.8291 178.987 37.0444C178.987 26.6699 186.413 19.5989 195.358 19.5989C204.364 19.5989 208.77 26.8036 210.21 30.697L211 32.6791L187.799 42.3379C189.575 45.838 192.337 47.6235 196.211 47.6235C200.092 47.6235 202.784 45.7043 204.756 42.7941ZM186.546 36.5175L202.056 30.0442C201.203 27.8655 198.636 26.3474 195.616 26.3474C191.742 26.3474 186.351 29.7846 186.546 36.5175Z" fill="#EA4335"/>
<path d="M27.3368 32.5139V25.1125H52.1502C52.3928 26.4024 52.518 27.9283 52.518 29.5801C52.518 35.1331 51.0077 41.9996 46.1405 46.8919C41.4063 51.8472 35.3575 54.49 27.3446 54.49C12.4925 54.49 0.00366211 42.33 0.00366211 27.4014C0.00366211 12.4727 12.4925 0.312744 27.3446 0.312744C35.561 0.312744 41.4141 3.55331 45.8119 7.77706L40.616 12.9997C37.4625 10.0266 33.19 7.71413 27.3368 7.71413C16.4912 7.71413 8.00875 16.4998 8.00875 27.4014C8.00875 38.3029 16.4912 47.0886 27.3368 47.0886C34.3715 47.0886 38.378 44.2492 40.9446 41.6693C43.0261 39.5771 44.3955 36.5882 44.9354 32.506L27.3368 32.5139Z" fill="#4285F4"/>
</svg>
