<svg width="288" height="63" viewBox="0 0 288 63" fill="none" xmlns="http://www.w3.org/2000/svg">
<g clip-path="url(#clip0_9_2498)">
<path d="M287.647 28.2688V23.1641H281.379V15.2282L281.168 15.2939L275.281 17.1157L275.165 17.1514V23.1644H265.873V19.8146C265.873 18.2548 266.218 17.0612 266.897 16.2652C267.572 15.4787 268.537 15.0789 269.769 15.0789C270.654 15.0789 271.57 15.2897 272.493 15.7056L272.724 15.81V10.4341L272.615 10.3937C271.755 10.0809 270.584 9.92334 269.134 9.92334C267.306 9.92334 265.645 10.3257 264.196 11.1231C262.746 11.9217 261.606 13.0617 260.807 14.5111C260.011 15.9588 259.607 17.6309 259.607 19.4813V23.1641H255.243V28.2688H259.607V49.774H265.873V28.2688H275.165V41.935C275.165 47.5634 277.79 50.4156 282.967 50.4156C283.817 50.4156 284.713 50.3148 285.627 50.1174C286.558 49.9147 287.191 49.7122 287.565 49.496L287.647 49.4466V44.2947L287.392 44.4652C287.052 44.6943 286.629 44.8816 286.132 45.0208C285.634 45.1626 285.217 45.2337 284.895 45.2337C283.682 45.2337 282.785 44.9032 282.228 44.2509C281.665 43.5928 281.379 42.4418 281.379 40.8318V28.2688H287.647ZM241.252 45.2345C238.977 45.2345 237.185 44.4719 235.921 42.9697C234.65 41.4599 234.006 39.3074 234.006 36.5725C234.006 33.7509 234.65 31.5425 235.922 30.006C237.186 28.4797 238.962 27.705 241.2 27.705C243.373 27.705 245.102 28.4449 246.341 29.9052C247.586 31.3732 248.218 33.5639 248.218 36.4184C248.218 39.3079 247.624 41.5276 246.452 43.0124C245.289 44.4859 243.539 45.2345 241.252 45.2345ZM241.53 22.5231C237.191 22.5231 233.746 23.8088 231.288 26.3446C228.833 28.8807 227.588 32.3902 227.588 36.7767C227.588 40.943 228.803 44.2942 231.2 46.7356C233.598 49.1779 236.86 50.415 240.896 50.415C245.101 50.415 248.479 49.1113 250.934 46.5405C253.39 43.9724 254.634 40.496 254.634 36.212C254.634 31.9805 253.467 28.6044 251.163 26.1792C248.859 23.7529 245.617 22.5231 241.53 22.5231ZM217.487 22.5231C214.535 22.5231 212.094 23.2865 210.229 24.7918C208.353 26.3061 207.401 28.2921 207.401 30.6954C207.401 31.9446 207.607 33.0543 208.011 33.9955C208.418 34.9398 209.047 35.7712 209.883 36.4689C210.713 37.1611 211.994 37.886 213.692 38.6237C215.119 39.2175 216.183 39.7199 216.859 40.1158C217.52 40.5038 217.989 40.8938 218.253 41.2737C218.511 41.6455 218.641 42.1543 218.641 42.7821C218.641 44.5699 217.318 45.4398 214.594 45.4398C213.583 45.4398 212.431 45.2264 211.169 44.8058C209.915 44.3915 208.732 43.7848 207.661 43.007L207.401 42.8183V48.919L207.496 48.9639C208.383 49.3778 209.501 49.7268 210.818 50.0014C212.133 50.2763 213.327 50.4162 214.365 50.4162C217.568 50.4162 220.147 49.649 222.028 48.1348C223.922 46.6101 224.882 44.5772 224.882 42.0908C224.882 40.2972 224.365 38.759 223.347 37.5185C222.335 36.2881 220.58 35.1585 218.132 34.16C216.181 33.3682 214.931 32.7109 214.416 32.2063C213.919 31.7188 213.666 31.0295 213.666 30.1565C213.666 29.3827 213.978 28.7627 214.617 28.2607C215.262 27.7561 216.159 27.4995 217.284 27.4995C218.328 27.4995 219.396 27.6663 220.458 27.9931C221.519 28.3199 222.451 28.7577 223.23 29.2931L223.486 29.47V23.683L223.387 23.6403C222.669 23.3289 221.723 23.0625 220.573 22.8463C219.428 22.6315 218.39 22.5231 217.487 22.5231ZM191.068 45.2345C188.795 45.2345 187.001 44.4719 185.738 42.9697C184.466 41.4599 183.823 39.3079 183.823 36.5725C183.823 33.7509 184.467 31.5425 185.739 30.006C187.002 28.4797 188.778 27.705 191.018 27.705C193.189 27.705 194.919 28.4449 196.158 29.9052C197.403 31.3732 198.035 33.5639 198.035 36.4184C198.035 39.3079 197.44 41.5276 196.269 43.0124C195.105 44.4859 193.356 45.2345 191.068 45.2345ZM191.347 22.5231C187.008 22.5231 183.561 23.8088 181.106 26.3446C178.65 28.8807 177.405 32.3902 177.405 36.7767C177.405 40.9447 178.621 44.2942 181.018 46.7356C183.415 49.1779 186.677 50.415 190.713 50.415C194.918 50.415 198.296 49.1113 200.752 46.5405C203.207 43.9724 204.452 40.496 204.452 36.212C204.452 31.9805 203.284 28.6044 200.98 26.1792C198.675 23.7529 195.434 22.5231 191.347 22.5231ZM167.894 27.7724V23.1641H161.705V49.7734H167.894V36.1617C167.894 33.8472 168.413 31.9457 169.437 30.5095C170.448 29.0904 171.795 28.3713 173.44 28.3713C173.997 28.3713 174.623 28.4642 175.301 28.6482C175.971 28.831 176.457 29.0295 176.744 29.2384L177.004 29.429V23.1186L176.904 23.0751C176.327 22.8275 175.512 22.7025 174.48 22.7025C172.925 22.7025 171.533 23.2079 170.341 24.203C169.295 25.0777 168.538 26.2769 167.96 27.7724H167.894ZM150.622 22.5231C147.783 22.5231 145.25 23.1388 143.096 24.3527C140.937 25.5693 139.268 27.3063 138.132 29.515C137.001 31.7183 136.427 34.292 136.427 37.1622C136.427 39.6763 136.984 41.9836 138.084 44.017C139.185 46.0538 140.743 47.6473 142.715 48.7525C144.685 49.8563 146.961 50.4159 149.481 50.4159C152.423 50.4159 154.934 49.8212 156.947 48.6483L157.029 48.6011V42.8666L156.768 43.0587C155.856 43.7306 154.837 44.2669 153.741 44.6533C152.647 45.0394 151.649 45.2345 150.775 45.2345C148.346 45.2345 146.397 44.466 144.982 42.9509C143.564 41.4338 142.845 39.3035 142.845 36.6228C142.845 33.9253 143.595 31.7402 145.072 30.1279C146.546 28.5204 148.499 27.705 150.877 27.705C152.911 27.705 154.894 28.4016 156.769 29.7775L157.029 29.9681V23.9259L156.945 23.8782C156.239 23.4786 155.276 23.1487 154.081 22.8985C152.892 22.6489 151.728 22.5231 150.622 22.5231ZM132.165 23.1644H125.976V49.7734H132.165V23.1644ZM129.134 11.8288C128.115 11.8288 127.227 12.1795 126.497 12.8744C125.764 13.5713 125.392 14.4488 125.392 15.4843C125.392 16.5036 125.759 17.365 126.485 18.0434C127.207 18.7198 128.098 19.0627 129.134 19.0627C130.17 19.0627 131.064 18.7198 131.794 18.0445C132.529 17.365 132.901 16.5039 132.901 15.4843C132.901 14.485 132.539 13.6165 131.824 12.9025C131.111 12.1899 130.205 11.8288 129.134 11.8288ZM113.692 21.2011V49.7734H120.008V12.6433H111.266L100.155 40.2225L89.3718 12.6433H80.2741V49.7731H86.2096V21.1983H86.4134L97.7999 49.7734H102.279L113.488 21.2011H113.692Z" fill="#706D6E"/>
<path d="M29.7618 29.6819H0.647156V0.236328H29.7618V29.6819Z" fill="#F1511B"/>
<path d="M61.9075 29.6811H32.7935V0.235596H61.9075V29.6811Z" fill="#80CC28"/>
<path d="M29.7609 62.2038H0.647156V32.7585H29.7609V62.2038Z" fill="#00ADEF"/>
<path d="M61.9075 62.2038H32.7935V32.7585H61.9075V62.2038Z" fill="#FBBC09"/>
</g>
<defs>
<clipPath id="clip0_9_2498">
<rect width="287" height="62" fill="white" transform="translate(0.647156 0.219727)"/>
</clipPath>
</defs>
</svg>
