<svg width="281" height="72" viewBox="0 0 281 72" fill="none" xmlns="http://www.w3.org/2000/svg">
<g clip-path="url(#clip0_9_2505)">
<path d="M90.5051 56.3458L93.991 48.2954C97.7581 51.0907 102.762 52.5442 107.71 52.5442C111.365 52.5442 113.67 51.1466 113.67 49.0222C113.614 43.0962 91.7983 47.7363 91.6296 32.8655C91.5734 25.3182 98.3204 19.504 107.879 19.504C113.557 19.504 119.236 20.9017 123.284 24.0883L120.023 32.3064C116.312 29.9584 111.702 28.2812 107.316 28.2812C104.336 28.2812 102.369 29.6788 102.369 31.4678C102.425 37.282 124.409 34.0954 124.634 48.2954C124.634 56.0103 118.055 61.4332 108.61 61.4332C101.694 61.4332 95.3404 59.8119 90.5051 56.3458ZM224.264 45.3883C222.521 48.4072 219.26 50.4757 215.493 50.4757C209.927 50.4757 205.429 46.0033 205.429 40.4686C205.429 34.934 209.927 30.4615 215.493 30.4615C219.26 30.4615 222.521 32.53 224.264 35.5489L233.879 30.2379C230.28 23.8647 223.365 19.504 215.493 19.504C203.854 19.504 194.409 28.8962 194.409 40.4686C194.409 52.041 203.854 61.4332 215.493 61.4332C223.421 61.4332 230.28 57.1285 233.879 50.6993L224.264 45.3883ZM129.469 2.11743H141.501V60.6505H129.469V2.11743ZM238.601 2.11743V60.6505H250.634V43.0962L264.915 60.6505H280.32L262.16 39.7977L278.971 20.3426H264.24L250.634 36.4993V2.11743H238.601ZM177.26 45.5001C175.517 48.3513 171.919 50.4757 167.871 50.4757C162.304 50.4757 157.806 46.0033 157.806 40.4686C157.806 34.934 162.304 30.4615 167.871 30.4615C171.919 30.4615 175.517 32.6977 177.26 35.6048V45.5001ZM177.26 20.3426V25.0946C175.292 21.7962 170.401 19.504 165.284 19.504C154.714 19.504 146.393 28.7844 146.393 40.4127C146.393 52.041 154.714 61.4332 165.284 61.4332C170.401 61.4332 175.292 59.141 177.26 55.8426V60.5946H189.292V20.3426H177.26Z" fill="black"/>
<path d="M16.1199 45.444C16.1199 49.5251 12.8026 52.8235 8.69821 52.8235C4.59379 52.8235 1.27652 49.5251 1.27652 45.444C1.27652 41.3629 4.59379 38.0645 8.69821 38.0645H16.1199V45.444ZM19.8307 45.444C19.8307 41.3629 23.148 38.0645 27.2524 38.0645C31.3568 38.0645 34.6741 41.3629 34.6741 45.444V63.8928C34.6741 67.9739 31.3568 71.2723 27.2524 71.2723C23.148 71.2723 19.8307 67.9739 19.8307 63.8928V45.444Z" fill="#E01E5A"/>
<path d="M27.2521 15.8142C23.1477 15.8142 19.8304 12.5158 19.8304 8.4347C19.8304 4.3536 23.1477 1.05518 27.2521 1.05518C31.3565 1.05518 34.6738 4.3536 34.6738 8.4347V15.8142H27.2521ZM27.2521 19.5599C31.3565 19.5599 34.6738 22.8583 34.6738 26.9394C34.6738 31.0205 31.3565 34.319 27.2521 34.319H8.64166C4.53724 34.319 1.21997 31.0205 1.21997 26.9394C1.21997 22.8583 4.53724 19.5599 8.64166 19.5599H27.2521Z" fill="#36C5F0"/>
<path d="M56.9951 26.9394C56.9951 22.8583 60.3124 19.5599 64.4168 19.5599C68.5212 19.5599 71.8385 22.8583 71.8385 26.9394C71.8385 31.0205 68.5212 34.319 64.4168 34.319H56.9951V26.9394ZM53.2843 26.9394C53.2843 31.0205 49.967 34.319 45.8626 34.319C41.7582 34.319 38.4409 31.0205 38.4409 26.9394V8.4347C38.4409 4.3536 41.7582 1.05518 45.8626 1.05518C49.967 1.05518 53.2843 4.3536 53.2843 8.4347V26.9394Z" fill="#2EB67D"/>
<path d="M45.8626 56.5133C49.967 56.5133 53.2843 59.8117 53.2843 63.8928C53.2843 67.9739 49.967 71.2723 45.8626 71.2723C41.7582 71.2723 38.4409 67.9739 38.4409 63.8928V56.5133H45.8626ZM45.8626 52.8235C41.7582 52.8235 38.4409 49.5251 38.4409 45.444C38.4409 41.3629 41.7582 38.0645 45.8626 38.0645H64.473C68.5774 38.0645 71.8947 41.3629 71.8947 45.444C71.8947 49.5251 68.5774 52.8235 64.473 52.8235H45.8626Z" fill="#ECB22E"/>
</g>
<defs>
<clipPath id="clip0_9_2505">
<rect width="280" height="71" fill="white" transform="translate(0.825439 0.719727)"/>
</clipPath>
</defs>
</svg>
